# xmcd
#
# Track frame offsets: 
#        150
#        13258
#        24063
#        35818
#        48645
#        62175
#        71811
#        83667
#        94329
#        104130
#        114252
#        124136
#        134330
#        144849
#        157736
#        168100
#        178834
#        187075
#        198184
#        208243
#        219476
#        231090
#        243963
#        255009
#
# Disc length: 3544 seconds
#
# Revision: 1
# Processed by: cddbd v1.5.2PL0 Copyright (c) Steve Scherf et al.
# Submitted via: ExactAudioCopy v1.0b1
#
DISCID=520dd618
DTITLE=B.B. King - Mr. Blues - Confessin' The Blues
DYEAR=2005
DGENRE=Blues
TTITLE0=Young Dreamers (stereo)
TTITLE1=By Myself (stereo)
TTITLE2=Chains Of Love (stereo)
TTITLE3=A Mother's Love (stereo)
TTITLE4=Blues At Midnight (stereo)
TTITLE5=Sneakin' Around (stereo)
TTITLE6=On My Word Of Honor (stereo)
TTITLE7=Tomorrow Night (stereo)
TTITLE8=My Baby's Comin' Home (stereo)
TTITLE9=Guess Who? (stereo)
TTITLE10=You Ask Me (stereo)
TTITLE11=I'm Gonna Sit In 'Til You Give In (stereo)
TTITLE12=See See Rider (stereo)
TTITLE13=Do You Call That A Buddy (stereo)
TTITLE14=Wee Baby Blues (stereo)
TTITLE15=I'd Rather Drink Muddy Water (stereo)
TTITLE16=In The Dark (stereo)
TTITLE17=Confessin' The Blues (stereo)
TTITLE18=Goin' To Chicago Blues (stereo)
TTITLE19=I'm Gonna Move To The Outskirts Of Town (stereo)
TTITLE20=World Of Trouble (stereo)
TTITLE21=How Long, How Long Blues (stereo)
TTITLE22=Cherry Red (stereo)
TTITLE23=Please Send Me Someone To Love (stereo)
EXTD=
EXTT0=
EXTT1=
EXTT2=
EXTT3=
EXTT4=
EXTT5=
EXTT6=
EXTT7=
EXTT8=
EXTT9=
EXTT10=
EXTT11=
EXTT12=
EXTT13=
EXTT14=
EXTT15=
EXTT16=
EXTT17=
EXTT18=
EXTT19=
EXTT20=
EXTT21=
EXTT22=
EXTT23=
PLAYORDER=
